<svg width="360" height="622" viewBox="0 0 360 622" fill="none" xmlns="http://www.w3.org/2000/svg">
<path d="M101.841 45.7561C109.235 45.2015 114.64 52.605 111.859 59.4787L86.1077 123.126C83.1667 130.395 73.3846 131.605 68.761 125.272L26.0452 66.7602C21.4216 60.4268 25.5544 51.4784 33.3739 50.8919L101.841 45.7561Z" fill="#447BC1" fill-opacity="0.3"/>
<path d="M65.8125 453.722C60.0461 448.683 61.8519 439.297 69.0765 436.758L250.204 373.087C257.485 370.528 264.798 376.832 263.34 384.411L226.782 574.416C225.324 581.995 216.194 585.136 210.382 580.057L65.8125 453.722Z" fill="#447BC1" fill-opacity="0.3"/>
<path d="M6.36041 193.154C-0.503997 181.736 5.50344 166.925 18.3819 163.515L359.258 73.2582C375.196 69.0382 389.107 84.831 382.91 100.109L223.726 492.576C217.529 507.854 196.547 509.494 188.052 495.364L6.36041 193.154Z" fill="#031123"/>
</svg>
