<svg width="71" height="71" viewBox="0 0 71 71" fill="none" xmlns="http://www.w3.org/2000/svg">
<g clip-path="url(#clip0_181:70)">
<path d="M42.9943 42.8704C41.3441 41.2582 39.1965 40.2431 36.8707 39.976L36.9578 30.6496C39.2918 30.2611 41.4639 29.1191 43.1388 27.4C44.9014 25.6081 46.0311 23.2967 46.3448 20.8404C46.6584 18.3841 46.1378 15.9269 44.8671 13.8669C43.5964 11.807 41.6502 10.265 39.3439 9.4909C37.0376 8.71682 34.5063 8.75599 32.1602 9.60206C29.8142 10.4481 27.7909 12.0515 26.4182 14.1524C25.0456 16.2532 24.404 18.7285 24.5975 21.1769C24.791 23.6253 25.8081 25.9035 27.4842 27.6422C29.1603 29.3809 31.397 30.4783 33.8318 30.7564L33.7337 40.0722C31.2929 40.4997 29.035 41.7343 27.3256 43.576C25.6162 45.4178 24.5555 47.7587 24.3154 50.2197C24.0752 52.6807 24.6696 55.1176 26.0023 57.1357C27.335 59.1538 29.3279 60.6348 31.6583 61.339C33.9886 62.0431 36.5199 61.9291 38.8421 61.0154C41.1644 60.1018 43.1415 58.4419 44.4533 56.3047C45.7651 54.1675 46.3347 51.6782 46.0699 49.2399C45.8051 46.8017 44.7214 44.5573 42.9943 42.8704V42.8704ZM30.008 14.5461C31.1106 13.4198 32.5092 12.633 34.0271 12.285C35.545 11.9371 37.1139 12.0436 38.5356 12.5913C39.9572 13.1389 41.1677 14.103 42.0139 15.3617C42.8601 16.6203 43.304 18.117 43.2896 19.6624C43.2752 21.2078 42.803 22.7326 41.9327 24.0438C41.0625 25.3551 39.8333 26.394 38.4007 27.0292C36.968 27.6643 35.3961 27.8672 33.8839 27.6122C32.3716 27.3571 30.9869 26.6556 29.9048 25.5963C28.4537 24.1759 27.6494 22.2137 27.6688 20.1413C27.6882 18.069 28.5296 16.0563 30.008 14.5461Z" fill="#75FD5F"/>
</g>
<defs>
<clipPath id="clip0_181:70">
<rect width="49" height="51" fill="white" transform="translate(35.6762) rotate(44.3896)"/>
</clipPath>
</defs>
</svg>
