<svg width="21" height="21" viewBox="0 0 21 21" fill="none" xmlns="http://www.w3.org/2000/svg">
<path d="M1.34311 0L0 0.405922L4.35286 15.0022H20.98V5.84077C20.98 4.90624 20.6111 4.00999 19.9545 3.34918C19.2979 2.68838 18.4073 2.31714 17.4787 2.31714H2.03358L1.34311 0Z" fill="#FAFAFA"/>
<path fill-rule="evenodd" clip-rule="evenodd" d="M7.6749 16.4117C7.11773 16.4117 6.58338 16.6344 6.18941 17.0309C5.79543 17.4274 5.5741 17.9651 5.5741 18.5258C5.5741 19.0865 5.79543 19.6243 6.18941 20.0208C6.58338 20.4173 7.11773 20.64 7.6749 20.64C8.23207 20.64 8.76641 20.4173 9.16039 20.0208C9.55437 19.6243 9.7757 19.0865 9.7757 18.5258C9.7757 17.9651 9.55437 17.4274 9.16039 17.0309C8.76641 16.6344 8.23207 16.4117 7.6749 16.4117ZM6.97463 18.5258C6.97463 18.3389 7.04841 18.1597 7.17973 18.0275C7.31106 17.8953 7.48918 17.8211 7.6749 17.8211C7.86062 17.8211 8.03874 17.8953 8.17006 18.0275C8.30139 18.1597 8.37516 18.3389 8.37516 18.5258C8.37516 18.7127 8.30139 18.892 8.17006 19.0241C8.03874 19.1563 7.86062 19.2306 7.6749 19.2306C7.48918 19.2306 7.31106 19.1563 7.17973 19.0241C7.04841 18.892 6.97463 18.7127 6.97463 18.5258Z" fill="#FAFAFA"/>
<path fill-rule="evenodd" clip-rule="evenodd" d="M17.4787 16.4117C16.9215 16.4117 16.3872 16.6344 15.9932 17.0309C15.5992 17.4274 15.3779 17.9651 15.3779 18.5258C15.3779 19.0865 15.5992 19.6243 15.9932 20.0208C16.3872 20.4173 16.9215 20.64 17.4787 20.64C18.0358 20.64 18.5702 20.4173 18.9642 20.0208C19.3581 19.6243 19.5795 19.0865 19.5795 18.5258C19.5795 17.9651 19.3581 17.4274 18.9642 17.0309C18.5702 16.6344 18.0358 16.4117 17.4787 16.4117V16.4117ZM16.7784 18.5258C16.7784 18.3389 16.8522 18.1597 16.9835 18.0275C17.1148 17.8953 17.2929 17.8211 17.4787 17.8211C17.6644 17.8211 17.8425 17.8953 17.9738 18.0275C18.1052 18.1597 18.1789 18.3389 18.1789 18.5258C18.1789 18.7127 18.1052 18.892 17.9738 19.0241C17.8425 19.1563 17.6644 19.2306 17.4787 19.2306C17.2929 19.2306 17.1148 19.1563 16.9835 19.0241C16.8522 18.892 16.7784 18.7127 16.7784 18.5258Z" fill="#FAFAFA"/>
</svg>
