<svg width="15" height="15" viewBox="0 0 15 15" fill="none" xmlns="http://www.w3.org/2000/svg">
<g clip-path="url(#clip0_301_41)">
<path d="M1.66667 2.08333C1.22464 2.08333 0.800716 2.25892 0.488155 2.57148C0.175595 2.88404 0 3.30797 0 3.74999L0 10.2612L11.0233 2.08333H1.66667Z" fill="#1EB53A"/>
<path d="M13.3333 12.9167C13.7754 12.9167 14.1993 12.7411 14.5118 12.4285C14.8244 12.1159 15 11.692 15 11.25V4.72083L3.94958 12.9167H13.3333Z" fill="#00A3DD"/>
<path d="M13.3333 2.08333H12.2783L0 11.0992V11.25C0 11.692 0.175595 12.1159 0.488155 12.4285C0.800716 12.7411 1.22464 12.9167 1.66667 12.9167H2.69458L15 3.88249V3.74999C15 3.30797 14.8244 2.88404 14.5118 2.57148C14.1993 2.25892 13.7754 2.08333 13.3333 2.08333Z" fill="#141414"/>
<path d="M11.0233 2.08333L0 10.2612V11.0992L12.2783 2.08333H11.0233ZM3.94958 12.9167L15 4.72083V3.88249L2.69458 12.9167H3.94958Z" fill="#FBD035"/>
</g>
<defs>
<clipPath id="clip0_301_41">
<rect width="15" height="15" fill="white"/>
</clipPath>
</defs>
</svg>
