<svg width="24" height="24" viewBox="0 0 24 24" fill="none" xmlns="http://www.w3.org/2000/svg">
<path d="M12.614 2.20996C12.4385 2.07341 12.2224 1.99927 12 1.99927C11.7776 1.99927 11.5615 2.07341 11.386 2.20996L3.158 8.60996C2.79716 8.89066 2.50524 9.25011 2.30455 9.66086C2.10385 10.0716 1.99968 10.5228 2 10.98V20C2 20.5304 2.21071 21.0391 2.58579 21.4142C2.96086 21.7892 3.46957 22 4 22H8C8.53043 22 9.03914 21.7892 9.41421 21.4142C9.78929 21.0391 10 20.5304 10 20V14H14V20C14 20.5304 14.2107 21.0391 14.5858 21.4142C14.9609 21.7892 15.4696 22 16 22H20C20.5304 22 21.0391 21.7892 21.4142 21.4142C21.7893 21.0391 22 20.5304 22 20V10.98C22.0001 10.5226 21.8956 10.0713 21.6946 9.66058C21.4935 9.24982 21.2012 8.89045 20.84 8.60996L12.614 2.20996Z" fill="#75FD5F"/>
</svg>
