<svg width="104" height="110" viewBox="0 0 104 110" fill="none" xmlns="http://www.w3.org/2000/svg">
<rect width="104" height="110" fill="#031123"/>
<g clip-path="url(#clip0_181:72)">
<path d="M58.9943 63.8704C57.3441 62.2582 55.1965 61.2431 52.8707 60.976L52.9578 51.6496C55.2918 51.2611 57.4639 50.1191 59.1388 48.4C60.9014 46.6081 62.0311 44.2967 62.3448 41.8404C62.6584 39.3841 62.1378 36.9269 60.8671 34.8669C59.5964 32.807 57.6502 31.265 55.3439 30.4909C53.0376 29.7168 50.5063 29.756 48.1602 30.6021C45.8142 31.4481 43.7909 33.0515 42.4182 35.1524C41.0456 37.2532 40.404 39.7285 40.5975 42.1769C40.791 44.6253 41.8081 46.9035 43.4842 48.6422C45.1603 50.3809 47.397 51.4783 49.8318 51.7564L49.7337 61.0722C47.2929 61.4997 45.035 62.7343 43.3256 64.576C41.6162 66.4178 40.5555 68.7587 40.3154 71.2197C40.0752 73.6807 40.6696 76.1176 42.0023 78.1357C43.335 80.1538 45.3279 81.6348 47.6583 82.339C49.9886 83.0431 52.5199 82.9291 54.8421 82.0154C57.1644 81.1018 59.1415 79.4419 60.4533 77.3047C61.7651 75.1675 62.3347 72.6782 62.0699 70.2399C61.8051 67.8017 60.7214 65.5573 58.9943 63.8704V63.8704ZM46.008 35.5461C47.1106 34.4198 48.5092 33.633 50.0271 33.285C51.545 32.9371 53.1139 33.0436 54.5356 33.5913C55.9572 34.1389 57.1677 35.103 58.0139 36.3617C58.8601 37.6203 59.304 39.117 59.2896 40.6624C59.2752 42.2078 58.803 43.7326 57.9327 45.0438C57.0625 46.3551 55.8333 47.394 54.4007 48.0292C52.968 48.6643 51.3961 48.8672 49.8839 48.6122C48.3716 48.3571 46.9869 47.6556 45.9048 46.5963C44.4537 45.1759 43.6494 43.2137 43.6688 41.1413C43.6882 39.069 44.5296 37.0563 46.008 35.5461Z" fill="#75FD5F"/>
</g>
<defs>
<clipPath id="clip0_181:72">
<rect width="49" height="51" fill="white" transform="translate(51.6762 21) rotate(44.3896)"/>
</clipPath>
</defs>
</svg>
