<svg width="200" height="87" viewBox="0 0 200 87" fill="none" xmlns="http://www.w3.org/2000/svg">
<path d="M69.8711 48.44C69.8711 50.424 69.9031 52.344 69.9671 54.2C70.0951 55.992 70.3831 57.624 70.8311 59.096C71.3431 60.504 72.0791 61.688 73.0391 62.648C73.9991 63.544 75.3111 64.088 76.9751 64.28C78.1271 64.408 79.2791 64.344 80.4311 64.088C81.6471 63.832 82.7351 63.48 83.6951 63.032C83.9511 62.968 84.3991 62.776 85.0391 62.456C85.7431 62.136 86.4471 61.88 87.1511 61.688L88.4951 61.304V32.312C87.5991 31.736 86.8311 31.032 86.1911 30.2C85.5511 29.368 85.1031 28.408 84.8471 27.32C84.7831 27.064 84.7511 26.744 84.7511 26.36C84.7511 25.912 84.7831 25.496 84.8471 25.112C84.9111 24.728 85.0071 24.408 85.1351 24.152C85.3271 23.832 85.5831 23.672 85.9031 23.672C86.2231 23.672 86.6071 23.736 87.0551 23.864C87.5031 23.992 87.9191 24.12 88.3031 24.248C89.1991 24.568 90.3191 25.048 91.6631 25.688C93.0711 26.328 94.1911 26.936 95.0231 27.512C95.5991 27.96 96.0151 28.504 96.2711 29.144C96.5911 29.72 96.7511 30.488 96.7511 31.448V64.184C96.7511 65.016 96.8471 65.88 97.0391 66.776C97.2951 67.608 97.5831 68.344 97.9031 68.984C98.2871 69.88 98.6071 70.68 98.8631 71.384C99.1831 72.152 99.1511 72.696 98.7671 73.016C98.5751 73.208 98.2551 73.304 97.8071 73.304C97.3591 73.304 96.8471 73.24 96.2711 73.112C95.6951 73.048 95.1191 72.92 94.5431 72.728C94.0311 72.6 93.5831 72.44 93.1991 72.248C91.5991 71.416 90.3831 70.328 89.5511 68.984C89.4231 68.728 89.2951 68.504 89.1671 68.312C89.1031 68.056 89.0071 67.8 88.8791 67.544L87.6311 68.696C86.2871 69.976 84.5911 71.064 82.5431 71.96C80.5591 72.92 78.4151 73.4 76.1111 73.4C71.6951 73.4 68.1431 71.8 65.4551 68.6C62.7671 65.336 61.3591 60.248 61.2311 53.336C61.2311 51.928 61.2631 50.36 61.3271 48.632C61.3911 46.904 61.3911 45.144 61.3271 43.352C61.3271 41.56 61.2311 39.8 61.0391 38.072C60.9111 36.28 60.6231 34.648 60.1751 33.176C60.0471 32.792 59.8551 32.376 59.5991 31.928C59.4071 31.416 59.2151 30.936 59.0231 30.488C58.8951 30.04 58.8311 29.624 58.8311 29.24C58.8311 28.792 58.9911 28.44 59.3111 28.184C59.5671 27.992 59.9511 27.928 60.4631 27.992C60.9751 27.992 61.5191 28.088 62.0951 28.28C62.6711 28.408 63.2151 28.568 63.7271 28.76C64.3031 28.952 64.7191 29.144 64.9751 29.336C65.9991 29.976 66.8311 30.808 67.4711 31.832C68.1111 32.792 68.5911 33.88 68.9111 35.096C69.2951 36.312 69.5511 37.624 69.6791 39.032C69.8071 40.44 69.8711 41.848 69.8711 43.256V48.44ZM107.202 65.912C108.93 63.352 110.69 60.728 112.482 58.04C114.338 55.288 116.098 52.6 117.762 49.976C119.49 47.352 121.122 44.824 122.658 42.392C124.258 39.96 125.698 37.72 126.978 35.672C126.274 35.736 125.282 35.864 124.002 36.056C122.722 36.184 121.346 36.344 119.874 36.536C118.466 36.728 117.058 36.888 115.65 37.016C114.306 37.144 113.218 37.208 112.386 37.208C111.682 37.208 110.914 37.016 110.082 36.632C109.25 36.184 108.482 35.64 107.778 35C107.138 34.36 106.594 33.688 106.146 32.984C105.762 32.216 105.57 31.512 105.57 30.872C105.57 30.616 105.762 30.456 106.146 30.392C106.594 30.264 107.074 30.2 107.586 30.2C108.098 30.136 108.61 30.136 109.122 30.2C109.698 30.2 110.146 30.2 110.466 30.2C112.322 30.2 114.338 30.168 116.514 30.104C118.754 30.04 120.93 29.944 123.042 29.816C125.218 29.688 127.266 29.56 129.186 29.432C131.106 29.24 132.738 29.048 134.082 28.856C134.466 28.792 134.818 28.76 135.138 28.76C135.522 28.696 135.842 28.696 136.098 28.76C136.546 28.888 137.026 29.144 137.538 29.528C138.114 29.848 138.626 30.232 139.074 30.68C139.586 31.128 139.97 31.608 140.226 32.12C140.546 32.568 140.706 32.984 140.706 33.368C140.642 33.88 140.258 34.264 139.554 34.52C138.85 34.712 138.274 34.872 137.826 35C137.058 36.28 136.066 37.848 134.85 39.704C133.634 41.496 132.29 43.416 130.818 45.464C129.41 47.448 127.938 49.528 126.402 51.704C124.93 53.816 123.49 55.832 122.082 57.752C120.738 59.608 119.49 61.304 118.338 62.84C117.186 64.376 116.29 65.56 115.65 66.392C117.826 66.328 119.81 66.264 121.602 66.2C123.394 66.072 125.09 65.976 126.69 65.912C128.29 65.784 129.826 65.688 131.298 65.624C132.77 65.496 134.242 65.368 135.714 65.24C136.354 65.176 136.994 65.144 137.634 65.144C138.338 65.08 138.978 65.08 139.554 65.144C140.13 65.144 140.578 65.208 140.898 65.336C141.282 65.464 141.474 65.656 141.474 65.912C141.474 66.424 141.218 67.064 140.706 67.832C140.258 68.6 139.682 69.368 138.978 70.136C138.274 70.84 137.442 71.448 136.482 71.96C135.586 72.472 134.722 72.728 133.89 72.728H110.562C109.794 72.728 109.09 72.632 108.45 72.44C107.874 72.312 107.33 71.992 106.818 71.48C106.434 71.096 105.986 70.488 105.474 69.656C105.026 68.76 104.738 68.024 104.61 67.448C104.482 66.936 104.578 66.552 104.898 66.296C105.218 66.04 105.666 65.912 106.242 65.912H107.202ZM151.649 34.712C151.649 34.328 151.585 34.104 151.457 34.04C151.393 33.912 151.297 33.816 151.169 33.752C150.529 33.56 149.761 33.368 148.865 33.176C147.969 32.92 147.297 32.696 146.849 32.504C146.209 32.184 145.665 31.736 145.217 31.16C144.769 30.52 144.545 29.88 144.545 29.24C144.545 28.792 144.897 28.408 145.601 28.088C146.305 27.704 146.881 27.448 147.329 27.32C148.929 26.808 150.401 26.424 151.745 26.168C153.089 25.912 154.529 25.816 156.065 25.88C156.833 25.88 157.441 26.04 157.889 26.36C158.401 26.68 158.753 27.064 158.945 27.512C159.201 27.896 159.361 28.312 159.425 28.76C159.553 29.144 159.617 29.464 159.617 29.72V59.192C159.617 60.728 159.457 62.424 159.137 64.28C158.817 66.072 158.401 67.768 157.889 69.368C157.441 70.904 156.865 72.184 156.161 73.208C155.521 74.232 154.881 74.744 154.241 74.744C153.665 74.744 153.217 74.136 152.897 72.92C152.577 71.768 152.321 70.36 152.129 68.696C151.937 67.032 151.809 65.336 151.745 63.608C151.681 61.88 151.649 60.44 151.649 59.288V34.712ZM154.721 20.792C154.017 20.92 153.025 20.728 151.745 20.216C150.529 19.64 149.537 18.904 148.769 18.008C148.257 17.432 148.001 16.76 148.001 15.992C148.065 15.16 148.257 14.392 148.577 13.688C148.961 12.92 149.441 12.28 150.017 11.768C150.657 11.256 151.329 11 152.033 11C152.801 11 153.569 11.128 154.337 11.384C155.169 11.576 155.905 11.896 156.545 12.344C157.249 12.728 157.825 13.176 158.273 13.688C158.721 14.2 158.945 14.744 158.945 15.32C158.945 16.408 158.529 17.56 157.697 18.776C156.865 19.992 155.873 20.664 154.721 20.792Z" fill="white"/>
<g clip-path="url(#clip0_18:6)">
<path d="M43.1485 59.0095C41.4983 57.3973 39.3507 56.3822 37.0249 56.1151L37.1121 46.7886C39.4461 46.4001 41.6181 45.2582 43.293 43.5391C45.0556 41.7472 46.1853 39.4358 46.499 36.9795C46.8127 34.5232 46.292 32.066 45.0213 30.006C43.7506 27.946 41.8044 26.4041 39.4981 25.63C37.1918 24.8559 34.6605 24.8951 32.3144 25.7411C29.9684 26.5872 27.9451 28.1906 26.5725 30.2915C25.1998 32.3923 24.5582 34.8675 24.7517 37.316C24.9452 39.7644 25.9624 42.0426 27.6384 43.7813C29.3145 45.52 31.5512 46.6174 33.9861 46.8955L33.888 56.2113C31.4472 56.6388 29.1892 57.8734 27.4798 59.7151C25.7704 61.5568 24.7098 63.8978 24.4696 66.3588C24.2294 68.8198 24.8238 71.2567 26.1565 73.2748C27.4892 75.2928 29.4821 76.7739 31.8125 77.4781C34.1428 78.1822 36.6741 78.0682 38.9964 77.1545C41.3186 76.2408 43.2957 74.581 44.6075 72.4438C45.9193 70.3066 46.4889 67.8173 46.2241 65.379C45.9593 62.9408 44.8756 60.6964 43.1485 59.0095V59.0095ZM30.1623 30.6852C31.2648 29.5589 32.6634 28.772 34.1813 28.4241C35.6992 28.0762 37.2681 28.1827 38.6898 28.7304C40.1114 29.278 41.3219 30.2421 42.1681 31.5008C43.0143 32.7594 43.4583 34.2561 43.4438 35.8015C43.4294 37.3469 42.9572 38.8717 42.087 40.1829C41.2167 41.4942 39.9876 42.5331 38.5549 43.1683C37.1222 43.8034 35.5503 44.0063 34.0381 43.7513C32.5258 43.4962 31.1411 42.7947 30.059 41.7354C28.608 40.315 27.8037 38.3528 27.823 36.2804C27.8424 34.2081 28.6838 32.1954 30.1623 30.6852Z" fill="#75FD5F"/>
</g>
<defs>
<clipPath id="clip0_18:6">
<rect width="49" height="51" fill="white" transform="translate(35.8304 16.1391) rotate(44.3896)"/>
</clipPath>
</defs>
</svg>
