<svg width="52" height="49" viewBox="0 0 52 49" fill="none" xmlns="http://www.w3.org/2000/svg">
<g clip-path="url(#clip0_135_35)">
<path d="M31.6372 29.7686C30.4107 28.6374 28.8241 27.9158 27.1134 27.711L27.0935 21.2491C28.8043 20.9997 30.3894 20.2269 31.6042 19.0498C32.8827 17.8231 33.6916 16.2311 33.8999 14.5317C34.1082 12.8323 33.7037 11.1252 32.7518 9.68697C31.7999 8.24875 30.3566 7.16374 28.6556 6.60776C26.9546 6.05178 25.0958 6.05742 23.3802 6.62376C21.6646 7.1901 20.193 8.28396 19.2037 9.72806C18.2143 11.1722 17.7654 12.8819 17.9295 14.5801C18.0937 16.2784 18.8613 17.8657 20.108 19.0847C21.3547 20.3038 23.0075 21.0832 24.7984 21.2966L24.8102 27.7509C23.0212 28.0265 21.3739 28.8628 20.1349 30.1245C18.8959 31.3861 18.1379 32.9993 17.9837 34.7025C17.8294 36.4058 18.2879 38.0995 19.285 39.5092C20.282 40.9189 21.7591 41.9621 23.4771 42.4699C25.1951 42.9776 27.0533 42.9201 28.7508 42.3067C30.4482 41.6933 31.8855 40.5599 32.8298 39.0901C33.7741 37.6203 34.1701 35.9002 33.9536 34.2084C33.7372 32.5166 32.921 30.9522 31.6372 29.7686V29.7686ZM21.8439 10.0314C22.6436 9.2603 23.6638 8.72694 24.7756 8.49873C25.8873 8.27052 27.0407 8.3577 28.0898 8.74926C29.1389 9.14082 30.0367 9.81917 30.6696 10.6985C31.3024 11.5779 31.642 12.6187 31.6453 13.6895C31.6486 14.7602 31.3155 15.8128 30.6881 16.714C30.0607 17.6152 29.1672 18.3247 28.1206 18.7526C27.074 19.1806 25.9213 19.3078 24.8083 19.1183C23.6952 18.9287 22.6719 18.4308 21.8675 17.6876C20.7889 16.691 20.1805 15.3245 20.1761 13.8887C20.1717 12.4528 20.7716 11.0653 21.8439 10.0314Z" fill="#75FD5F"/>
</g>
<defs>
<clipPath id="clip0_135_35">
<rect width="35.4372" height="35.9461" fill="white" transform="matrix(0.734465 0.678646 -0.719865 0.694115 25.8763 3.05176e-05)"/>
</clipPath>
</defs>
</svg>
