<svg width="71" height="71" viewBox="0 0 71 71" fill="none" xmlns="http://www.w3.org/2000/svg">
<g clip-path="url(#clip0_18:4)">
<path d="M43.1485 43.0095C41.4983 41.3973 39.3507 40.3822 37.0249 40.1151L37.1121 30.7886C39.4461 30.4001 41.6181 29.2582 43.293 27.5391C45.0556 25.7472 46.1853 23.4358 46.499 20.9795C46.8127 18.5232 46.292 16.066 45.0213 14.006C43.7506 11.946 41.8044 10.4041 39.4981 9.62999C37.1918 8.85591 34.6605 8.89508 32.3144 9.74115C29.9684 10.5872 27.9451 12.1906 26.5725 14.2915C25.1998 16.3923 24.5582 18.8675 24.7517 21.316C24.9452 23.7644 25.9624 26.0426 27.6384 27.7813C29.3145 29.52 31.5512 30.6174 33.9861 30.8955L33.888 40.2113C31.4472 40.6388 29.1892 41.8734 27.4798 43.7151C25.7704 45.5569 24.7098 47.8978 24.4696 50.3588C24.2294 52.8198 24.8238 55.2567 26.1565 57.2748C27.4892 59.2928 29.4821 60.7739 31.8125 61.4781C34.1428 62.1822 36.6741 62.0682 38.9964 61.1545C41.3186 60.2408 43.2957 58.581 44.6075 56.4438C45.9193 54.3066 46.4889 51.8173 46.2241 49.379C45.9593 46.9408 44.8756 44.6964 43.1485 43.0095ZM30.1623 14.6852C31.2648 13.5589 32.6634 12.772 34.1813 12.4241C35.6992 12.0762 37.2681 12.1827 38.6898 12.7304C40.1114 13.278 41.3219 14.2421 42.1681 15.5008C43.0143 16.7594 43.4583 18.2561 43.4438 19.8015C43.4294 21.3469 42.9572 22.8717 42.087 24.1829C41.2167 25.4942 39.9876 26.5331 38.5549 27.1683C37.1222 27.8034 35.5503 28.0063 34.0381 27.7513C32.5258 27.4962 31.1411 26.7947 30.059 25.7354C28.608 24.315 27.8037 22.3528 27.823 20.2804C27.8424 18.2081 28.6838 16.1954 30.1623 14.6852Z" fill="#75FD5F"/>
</g>
<defs>
<clipPath id="clip0_18:4">
<rect width="49" height="51" fill="white" transform="translate(35.8304 0.139099) rotate(44.3896)"/>
</clipPath>
</defs>
</svg>
