<svg width="29" height="30" viewBox="0 0 29 30" fill="none" xmlns="http://www.w3.org/2000/svg">
<g clip-path="url(#clip0_146_66)">
<path d="M6.26444 27.7915C9.04301 28.9268 12.8039 30.1076 15.8027 29.8301C20.1736 29.4256 28.715 27.5674 28.715 19.7923C28.715 19.7168 28.5405 19.1534 28.4803 19.1313C28.13 18.1891 27.7154 17.3431 27.1073 16.4576C26.2994 15.2787 25.4489 10.9015 25.9382 9.49243C25.9663 9.41321 25.8127 9.34337 25.7443 9.34712C23.9939 9.4704 22.3105 12.1877 22.1102 13.7477C16.3139 7.06665 17.6044 1.53212 18.4762 0.1779C18.482 0.172392 18.4863 0.165345 18.4887 0.157506C18.491 0.149668 18.4912 0.141328 18.4893 0.133369C18.4902 0.0508689 18.3325 -0.0316311 18.2523 0.0100876C12.7183 1.10696 6.02519 11.449 6.34419 13.001C5.18918 12.2407 5.94136 8.14384 6.37229 6.99259C6.40763 6.89931 6.19965 6.81212 6.12488 6.86368C4.87788 7.71915 2.90044 10.1824 0.808818 16.6338C-1.28281 23.0852 3.36852 26.6046 6.26444 27.7915Z" fill="#DC603A"/>
<path d="M24.9355 17.9953C24.5689 19.4522 24.3551 21.0839 22.3228 21.5344C18.8976 22.2966 20.6784 16.8699 20.5361 15.5616C20.2955 13.3922 18.0158 11.9053 15.6745 11.0916C15.5835 11.0597 18.3598 14.8509 14.1049 15.7584C12.7782 16.042 11.4591 15.3038 11.2688 14.1009C11.1804 13.5272 11.4777 11.8542 11.3685 11.9334C10.3191 12.6858 9.27913 13.537 9.15996 14.7164C9.08338 15.5006 9.46129 16.35 9.61761 17.1164C9.87091 18.3788 9.40057 19.4227 7.60483 19.4348C5.39811 19.4484 6.0565 15.4467 6.05243 15.4566C6.00757 15.4191 -2.30093 23.4956 10.2588 29.1066C13.9155 30.7402 20.1405 29.5355 23.2875 27.457C27.3656 24.7636 25.201 16.935 24.9364 17.993" fill="#F1EA37"/>
</g>
<defs>
<clipPath id="clip0_146_66">
<rect width="29" height="30" fill="white"/>
</clipPath>
</defs>
</svg>
