<svg width="23" height="23" viewBox="0 0 23 23" fill="none" xmlns="http://www.w3.org/2000/svg">
<path d="M23 21.4966C23 21.6761 22.8989 21.8406 22.6968 21.9902C22.4946 22.1398 22.1839 22.2633 21.7646 22.3605C21.3454 22.4577 20.9149 22.5475 20.4731 22.6298C20.0314 22.712 19.4661 22.7756 18.7773 22.8205C18.0885 22.8654 17.4896 22.899 16.9805 22.9215C16.4714 22.9439 15.8162 22.9626 15.0151 22.9776C14.214 22.9925 13.6076 23 13.1958 23H9.8042L7.98486 22.9776L6.01953 22.9215L4.22266 22.8205L2.52686 22.6298L1.23535 22.3605L0.303223 21.9902L0 21.4966C0.0299479 20.1802 0.853516 19.0171 2.4707 18.0073C4.08789 16.9976 6.13932 16.3281 8.625 15.999V15.2585C7.84635 14.9145 7.17253 14.4283 6.60352 13.8C6.03451 13.1717 5.58529 12.435 5.25586 11.5898C4.92643 10.7446 4.68685 9.83951 4.53711 8.87463C4.38737 7.90976 4.3125 6.86634 4.3125 5.74439C4.3125 4.78699 4.49967 3.93431 4.87402 3.18634C5.24837 2.43837 5.76497 1.83626 6.42383 1.38C7.08268 0.92374 7.83887 0.579675 8.69238 0.347805C9.5459 0.115935 10.4818 0 11.5 0C12.5182 0 13.4541 0.115935 14.3076 0.347805C15.1611 0.579675 15.9173 0.92374 16.5762 1.38C17.235 1.83626 17.7516 2.43837 18.126 3.18634C18.5003 3.93431 18.6875 4.78699 18.6875 5.74439C18.6875 10.9802 17.25 14.1665 14.375 15.3034V15.999C16.8607 16.3281 18.9121 16.9976 20.5293 18.0073C22.1465 19.0171 22.9701 20.1802 23 21.4966Z" fill="#75FD5F"/>
</svg>
